<svg preserveAspectRatio="xMidYMid meet" width="100%" height="100%" overflow="visible" style="display: block;" viewBox="0 0 1440.71 162.711" fill="none" xmlns="http://www.w3.org/2000/svg">
<g id="Logo wrap">
<g id="Vector">
<path d="M1036.37 86.1612C1032.66 82.6654 1028.57 79.587 1024.19 76.9812C1019.58 74.2266 1014.77 71.8399 1009.78 69.8432C1004.74 67.8199 999.705 65.834 994.665 63.9231C989.626 62.0121 984.829 59.9888 980.258 57.853C975.991 55.8951 971.909 53.5563 968.062 50.8649C964.603 48.4475 961.724 45.293 959.631 41.6287C956.924 36.7411 955.942 31.0834 956.847 25.5695C957.751 20.0557 960.488 15.0076 964.615 11.2409C970.334 6.05367 977.864 3.32191 985.579 3.63463C990.679 3.61489 995.735 4.57528 1000.47 6.46358C1005.41 8.5043 1009.94 11.4385 1013.81 15.119C1018.49 19.6351 1022.34 24.9361 1025.18 30.7813C1028.8 38.0371 1031.52 45.7061 1033.28 53.619H1036.2V0.224904H1030.58C1029.72 4.49643 1027.32 5.4519 1022.71 5.4519C1017.87 4.88809 1013.08 3.9993 1008.36 2.79157C1001.2 1.12414 993.872 0.232229 986.516 0.131232C980.127 0.119813 973.765 0.951316 967.594 2.60422C961.656 4.18756 955.978 6.61673 950.732 9.8171C945.663 12.9246 941.421 17.2118 938.367 22.3132C935.217 27.5796 933.595 33.6191 933.684 39.7552C933.622 45.0321 934.702 50.2598 936.85 55.0803C938.826 59.5534 941.695 63.5761 945.28 66.9019C949.009 70.2817 953.07 73.2758 957.402 75.8384C962.054 78.6287 966.893 81.0951 971.884 83.2199C976.967 85.3931 982.044 87.5101 987.115 89.5709C992.192 91.6318 997.007 93.8425 1001.58 96.1656C1005.83 98.2971 1009.89 100.805 1013.7 103.659C1017.14 106.239 1020.01 109.497 1022.13 113.233C1024.27 117.018 1025.36 121.306 1025.3 125.654C1025.37 129.877 1024.53 134.066 1022.86 137.943C1021.18 141.819 1018.7 145.294 1015.57 148.136C1009.09 154.281 1000.77 157.36 990.619 157.372C983.955 157.515 977.337 156.243 971.201 153.64C965.065 151.037 959.551 147.162 955.023 142.272C945.443 132.28 939.198 118.541 936.288 101.055H932.878V161.007H936.625C937.245 158.816 938.504 156.859 940.241 155.386C941.817 154.22 943.732 153.602 945.693 153.625C948.622 153.836 951.505 154.467 954.254 155.499C959.074 157.031 963.978 158.282 968.942 159.245C975.952 160.566 983.074 161.194 990.206 161.119C998.436 161.204 1006.62 159.892 1014.41 157.241C1021.11 155.028 1027.32 151.528 1032.68 146.937C1037.33 142.874 1041.15 137.942 1043.92 132.417C1046.51 127.239 1047.87 121.533 1047.89 115.743C1047.97 110.024 1046.92 104.344 1044.8 99.032C1042.94 94.1879 1040.07 89.7988 1036.37 86.1612Z" fill="var(--fill-0, white)"/>
<path d="M1366.94 149.354C1366.31 150.34 1365.44 151.155 1364.41 151.726C1363.39 152.298 1362.23 152.609 1361.06 152.632C1354.98 152.632 1351.59 143.94 1350.91 126.554C1350.76 119.342 1349.86 112.166 1348.23 105.14C1346.87 99.5532 1344.43 94.2886 1341.03 89.6462C1337.6 85.0724 1332.96 81.5487 1327.64 79.4733C1320.95 76.9673 1313.89 75.5689 1306.75 75.3329C1322.5 72.9723 1334.36 68.4198 1342.35 61.6752C1350.33 54.9307 1354.3 46.8561 1354.28 37.4512C1354.28 25.1987 1349.83 15.8938 1340.92 9.53644C1332.36 3.41018 1318.74 0.318941 1300.3 0.169063V0.075387H1225.96V3.18536C1233.46 3.41017 1238.76 4.42185 1241.87 6.22039C1243.41 7.11262 1244.67 8.42047 1245.5 9.99427C1246.33 11.5681 1246.7 13.3442 1246.57 15.1194V145.701C1246.57 153.045 1239.7 157.029 1225.96 157.653V160.745H1301.62V157.504C1291.62 157.041 1284.75 155.699 1281.01 153.476C1279.29 152.598 1277.85 151.254 1276.85 149.598C1275.86 147.942 1275.35 146.039 1275.39 144.108V77.1876L1286.63 77.6373C1299.48 78.1119 1308.45 81.4404 1313.55 87.6229C1318.65 93.8053 1321.61 104.028 1322.45 118.292C1323.37 135.365 1325.87 147.043 1329.94 153.326C1334.01 159.608 1341.28 162.73 1351.75 162.693C1354.46 162.809 1357.16 162.371 1359.68 161.404C1362.21 160.437 1364.52 158.963 1366.46 157.073C1370.2 153.326 1372.98 147.124 1374.79 138.469L1371.59 138.001C1370.77 142.044 1369.19 145.896 1366.94 149.354ZM1275.26 71.9044V14.37C1275.26 9.93611 1276.4 6.70125 1278.68 4.6654C1280.97 2.62956 1284.63 1.61788 1289.66 1.63037H1292.75C1303.32 1.63037 1311.14 4.34691 1316.21 9.77999C1321.28 15.2131 1323.78 24.2495 1323.7 36.8892C1323.7 60.3826 1312.03 72.1355 1288.67 72.148C1282.7 72.148 1278.23 72.0668 1275.26 71.9044Z" fill="var(--fill-0, white)"/>
<path d="M1435.19 132.211C1433.69 130.624 1431.88 129.365 1429.87 128.514C1427.85 127.662 1425.69 127.237 1423.5 127.265C1419.11 127.356 1414.93 129.139 1411.82 132.243C1408.71 135.346 1406.92 139.53 1406.83 143.92C1406.81 146.134 1407.23 148.328 1408.09 150.37C1408.94 152.412 1410.2 154.259 1411.79 155.798C1413.3 157.391 1415.11 158.657 1417.13 159.517C1419.14 160.378 1421.31 160.815 1423.5 160.8C1425.69 160.827 1427.86 160.396 1429.88 159.534C1431.89 158.673 1433.7 157.4 1435.19 155.798C1436.75 154.243 1437.99 152.391 1438.82 150.351C1439.65 148.311 1440.07 146.124 1440.04 143.92C1440.07 141.743 1439.65 139.583 1438.81 137.571C1437.98 135.558 1436.75 133.736 1435.19 132.211Z" fill="var(--fill-0, white)"/>
<path d="M80.3534 103.903L13.9949 0H0V160.8H20.0837V45.3568L74.021 129.832H86.6857L140.623 45.3568V160.8H160.688V0H146.693L80.3534 103.903Z" fill="var(--fill-0, white)"/>
<path d="M458.702 81.3838L422.001 123.893V0H401.955V160.8H415.669L417.261 158.927L417.28 158.946L522.457 37.1323V160.8H542.484V0H528.789L458.702 81.3838Z" fill="var(--fill-0, white)"/>
<path d="M602.939 0.0360513H582.837V160.724H602.939V0.0360513Z" fill="var(--fill-0, white)"/>
<path d="M274.708 0L200.556 160.8H221.221L281.303 30.8187L341.385 160.8H362.05L287.898 0H274.708Z" fill="var(--fill-0, white)"/>
<path d="M642.958 0.131116V4.08415H648.166C651.733 4.25967 655.223 5.17858 658.414 6.78195C659.909 7.70911 661.119 9.03009 661.912 10.5999C662.705 12.1697 663.051 13.9277 662.91 15.681V146.824C662.91 153.869 656.26 157.697 642.958 158.309V160.932H716.379V158.309C711.028 158.207 705.708 157.471 700.53 156.117C697.584 155.488 694.887 154.009 692.774 151.864C691.39 150.015 690.688 147.745 690.788 145.438V80.3159C695.04 80.3159 700.998 80.3159 703.415 80.3159C705.288 80.3159 707.162 80.2222 709.148 80.3159C729.019 80.3159 739.404 89.6832 740.304 108.418H743.507V48.1483H740.36C740.237 52.2868 739.452 56.3789 738.037 60.2697C736.937 63.3231 735.258 66.135 733.091 68.5504C731.073 70.6916 728.646 72.4054 725.953 73.5901C723.22 74.8531 720.326 75.7356 717.354 76.213C714.141 76.6905 710.897 76.9222 707.649 76.9061C706.244 76.9061 704.876 76.9061 703.471 76.9061C700.717 76.9061 694.647 76.9998 690.844 76.9061V16.5615C690.844 12.1151 692.286 8.9427 695.172 7.04424C698.057 5.14579 703.558 4.18407 711.677 4.15909H717.447C728.451 4.15909 737.462 7.33775 744.481 13.6951C751.501 20.0524 757.084 31.2933 761.23 47.4176L763.891 46.968V0.131116H642.958Z" fill="var(--fill-0, white)"/>
<path d="M1065.18 0.131116V45.5067L1068.18 45.9563C1072.94 30.4439 1078.56 19.6465 1085.04 13.5639C1091.52 7.48138 1101.24 4.44011 1114.18 4.44011H1120.98V145.419C1120.98 149.778 1119.51 152.901 1116.59 154.787C1113.67 156.66 1108.52 157.747 1101.14 158.121V160.875H1131.11C1134.3 160.875 1137.5 160.875 1140.7 160.875H1170.68V158.121C1162.99 157.659 1157.64 156.379 1154.64 154.281C1151.64 152.182 1150.15 148.76 1150.15 144.014V4.44011H1158.52C1164.06 4.32575 1169.58 5.05863 1174.89 6.61334C1179.45 8.08161 1183.59 10.6191 1186.96 14.0136C1190.62 17.7355 1193.63 22.041 1195.88 26.7532C1198.8 32.9521 1201.23 39.3732 1203.15 45.9563L1205.92 45.5067V0.131116H1065.18ZM1067.66 25.9851V25.2544C1067.71 25.498 1067.69 25.7415 1067.66 25.9851ZM1203.73 28.3644V28.8328C1203.72 28.6768 1203.72 28.5204 1203.73 28.3644Z" fill="var(--fill-0, white)"/>
<path d="M783.412 0.131116V3.69072C790.906 3.91554 796.214 4.92097 799.337 6.70701C800.857 7.6102 802.094 8.92041 802.908 10.4896C803.723 12.0589 804.082 13.8246 803.946 15.5873V145.962C804.079 147.699 803.717 149.438 802.901 150.977C802.085 152.516 800.849 153.791 799.337 154.655C796.252 156.416 790.944 157.409 783.412 157.634V160.725H891.98C893.104 160.725 894.266 160.725 895.409 160.725H904.776V107.463H904.139L901.985 107.275C900.171 114.633 897.867 121.862 895.09 128.914C893.154 133.976 890.64 138.798 887.596 143.283C885.121 146.794 881.928 149.738 878.229 151.92C874.846 153.924 871.146 155.337 867.288 156.098C862.784 156.877 858.219 157.241 853.649 157.185H853.143C845.78 157.185 840.497 156.21 837.35 154.262C835.795 153.303 834.531 151.938 833.696 150.313C832.861 148.689 832.485 146.867 832.61 145.044V80.4845H839.261C842.277 80.4845 845.574 80.4845 849.471 80.4845C869.929 80.4845 880.614 89.677 881.526 108.062H884.505V48.6541H881.526C881.388 53.5367 880.267 58.3412 878.229 62.7801C876.56 66.3682 873.885 69.3945 870.529 71.4918C867.342 73.4057 863.87 74.7972 860.244 75.6134C856.176 76.4518 852.031 76.8537 847.879 76.8125C844.937 76.9249 842.108 76.8125 839.261 76.8125H832.61V16.524C832.484 14.6806 832.858 12.8373 833.692 11.1887C834.526 9.54 835.79 8.14701 837.35 7.15665C839.973 5.50799 844.15 4.57125 849.696 4.30896V4.17782H855.316C860.739 4.10836 866.148 4.73804 871.41 6.0513C875.992 7.32473 880.264 9.52457 883.962 12.5148C888.314 16.0963 891.858 20.5595 894.36 25.6104C897.743 32.5491 900.399 39.8195 902.284 47.3052L904.907 46.8556V0.131116H783.412Z" fill="var(--fill-0, white)"/>
</g>
</g>
</svg>
